<svg height="512pt" viewBox="0 0 511 512" width="512pt" xmlns="http://www.w3.org/2000/svg" xmlns:xlink="http://www.w3.org/1999/xlink"><linearGradient id="a" gradientUnits="userSpaceOnUse" x1="256.1603444252" x2="256.1603444252" y1="0" y2="511.9998867178"><stop offset="0" stop-color="#2af598"/><stop offset="1" stop-color="#009efd"/></linearGradient><path d="m141.3125 119.839844c33.039062 0 59.921875-26.878906 59.921875-59.917969 0-33.042969-26.882813-59.921875-59.921875-59.921875s-59.921875 26.878906-59.921875 59.921875c0 33.039063 26.882813 59.917969 59.921875 59.917969zm0-79.894532c11.015625 0 19.972656 8.960938 19.972656 19.976563 0 11.011719-8.957031 19.972656-19.972656 19.972656-11.011719 0-19.972656-8.960937-19.972656-19.972656 0-11.015625 8.960937-19.976563 19.972656-19.976563zm172.90625-39.945312 52.757812 81.117188-53.792968 78.671874h158.691406v196.738282h-79.894531v38.949218h-82.890625v37.949219h-42.941406v-105.898437l-67.910157-29.957032v-70.988281l34.230469 31.074219h79.617188v-39.945312h-64.191407l-65.207031-59.203126c-10.972656-12.089843-26.800781-19.691406-44.371094-19.691406h-45.9375v.097656c-18.769531 1.058594-35.949218 10.824219-46.457031 26.585938l-45.421875 68.132812v84.945313h39.945312v-72.847656l31.960938-47.9375v202.886719l-56.835938 89.988281 33.773438 21.332031 63.007812-99.761719v-233.476562h25.964844c4.832032 0 9.269532 1.726562 12.730469 4.59375l-.191406.207031 3.167969 2.875c2.664062 3.394531 4.269531 7.660156 4.269531 12.296875v124.871094l67.910156 29.960937v117.808594h-72.90625v39.945312h112.851563v-37.949218h82.890624v-37.949219h82.890626v-38.949219h79.890624v-396.472656zm74.667969 119.839844 26.101562-38.171875-27.136719-41.722657h84.023438v79.894532zm0 0" fill="url(#a)"/></svg>